 <svg  version="1.0" xmlns="http://www.w3.org/2000/svg"  width="300.000000pt" height="300.000000pt" viewBox="0 0 300.000000 300.000000"  preserveAspectRatio="xMidYMid meet">  <g transform="translate(0.000000,300.000000) scale(0.100000,-0.100000)" fill="#00bfff" stroke="none"> <path d="M1420 2671 c0 -5 5 -13 10 -16 6 -3 10 -2 10 4 0 5 -4 13 -10 16 -5 3 -10 2 -10 -4z"/> <path d="M1506 2666 c11 -8 33 -18 49 -22 28 -7 28 -7 9 13 -10 10 -32 20 -49 21 -29 2 -29 2 -9 -12z"/> <path d="M1586 2665 c4 -8 17 -15 30 -15 15 0 24 -6 24 -16 0 -12 -6 -15 -25 -10 -14 4 -25 2 -25 -3 0 -6 -6 -8 -14 -5 -9 3 -17 -3 -21 -16 -4 -11 -18 -33 -31 -47 -28 -30 -27 -40 4 -61 20 -13 22 -13 16 2 -3 9 -10 13 -15 10 -21 -12 -7 19 21 49 16 18 30 35 30 40 0 9 34 9 43 0 4 -3 2 -12 -4 -20 -6 -7 -8 -13 -3 -13 5 0 -1 -8 -14 -18 l-23 -18 35 0 c20 0 42 -6 49 -13 10 -11 6 -12 -20 -6 -37 7 -47 -3 -26 -30 15 -20 15 -20 8 3 -4 13 -2 22 4 22 6 0 11 -4 11 -8 0 -4 9 -8 19 -8 11 0 17 4 15 8 -3 4 0 8 5 8 18 0 12 -38 -6 -49 -10 -6 -13 -11 -7 -11 5 0 15 5 22 12 14 14 16 0 3 -21 -5 -8 -16 -11 -26 -8 -9 4 -14 3 -10 -2 3 -5 -1 -12 -7 -14 -7 -3 -3 -6 8 -6 12 -1 27 6 34 14 11 13 15 13 22 3 6 -10 8 -8 6 5 -4 25 42 52 76 43 15 -4 24 -11 21 -15 -3 -5 1 -12 7 -14 9 -4 9 -8 3 -14 -5 -4 -11 -17 -13 -28 -3 -20 -3 -20 11 -1 14 19 15 19 37 -2 18 -17 27 -19 37 -10 7 6 29 12 47 15 26 2 35 -1 39 -14 2 -10 8 -27 13 -37 6 -15 4 -18 -7 -12 -8 4 -6 1 4 -7 21 -18 22 -31 1 -23 -9 3 -14 1 -12 -5 6 -18 20 -15 32 6 14 25 28 35 38 29 4 -3 8 -1 8 5 0 5 -12 11 -27 13 -18 2 -29 10 -32 23 -3 19 -2 19 15 3 11 -9 31 -19 46 -23 14 -4 33 -14 41 -23 14 -15 14 -19 -1 -37 -9 -12 -25 -24 -35 -28 -13 -5 -17 -13 -12 -28 4 -12 8 -35 9 -50 1 -16 8 -35 14 -41 18 -18 34 9 27 47 -2 17 -1 35 3 41 12 17 44 25 57 14 9 -8 15 -8 20 0 3 5 -1 10 -9 10 -9 0 -16 5 -16 10 0 13 12 12 30 -3 16 -12 20 -50 7 -63 -13 -13 -7 -34 14 -57 12 -12 19 -16 15 -9 -4 7 -2 20 6 29 11 14 10 15 -10 9 -25 -8 -31 9 -5 18 17 7 33 -9 33 -31 0 -7 7 -10 15 -7 18 7 20 -12 3 -19 -9 -4 0 -16 22 -36 19 -16 32 -33 27 -37 -4 -4 -7 -1 -7 7 -1 10 -5 8 -15 -5 -17 -23 -18 -26 -6 -45 8 -12 12 -12 25 -2 19 16 42 5 26 -14 -6 -7 -8 -20 -4 -29 3 -9 1 -16 -5 -16 -6 0 -11 5 -11 10 0 6 -7 10 -15 10 -18 0 -20 -17 -2 -23 6 -2 9 -8 4 -12 -4 -5 -13 -3 -19 3 -16 16 -31 15 -21 0 4 -7 8 -24 8 -38 0 -26 32 -41 45 -21 9 16 40 2 40 -18 -1 -14 -2 -14 -14 1 -7 10 -16 15 -19 11 -11 -11 -8 -23 6 -23 7 0 22 -6 32 -14 16 -12 17 -16 6 -29 -7 -9 -18 -15 -24 -13 -7 1 -9 1 -4 -1 10 -6 9 -33 -2 -33 -5 0 -11 6 -14 13 -2 6 -4 -3 -5 -21 l-1 -33 20 25 c16 20 24 24 38 16 10 -5 21 -7 25 -3 3 3 17 -5 30 -18 18 -18 22 -29 15 -39 -7 -13 -9 -12 -9 1 0 9 -7 20 -15 23 -17 6 -38 -34 -29 -57 7 -20 -41 -43 -60 -28 -12 10 -16 8 -21 -9 -8 -27 10 -49 26 -33 12 12 49 6 49 -8 0 -5 12 4 28 21 24 26 29 28 45 16 16 -12 17 -17 5 -35 -11 -18 -11 -23 2 -31 21 -13 3 -13 -21 1 -26 13 -49 -4 -42 -31 4 -15 1 -18 -15 -14 -23 7 -37 -20 -18 -35 22 -18 58 21 50 53 -4 17 -2 26 6 26 7 0 10 -6 7 -14 -3 -7 0 -19 6 -25 9 -9 9 -14 -1 -20 -17 -10 2 -61 23 -61 18 0 20 -31 4 -47 -14 -14 -5 -43 13 -43 10 0 10 2 0 9 -12 7 -12 12 -1 30 15 22 29 28 29 11 0 -5 -5 -10 -11 -10 -7 0 -9 -9 -5 -23 4 -16 -1 -27 -17 -37 -26 -17 -55 -21 -63 -9 -6 11 -44 -8 -44 -21 0 -10 57 -44 74 -45 19 0 17 -24 -3 -44 -12 -12 -16 -21 -11 -21 6 0 10 -7 10 -15 0 -8 -4 -15 -10 -15 -5 0 -10 6 -10 13 0 8 -4 7 -10 -3 -7 -11 -4 -20 11 -32 12 -10 16 -18 10 -18 -6 0 -13 0 -16 0 -3 0 -6 3 -6 8 -1 4 -15 13 -31 19 -16 7 -27 17 -24 22 8 12 -21 34 -34 26 -15 -9 -12 -35 5 -41 11 -5 13 -10 5 -19 -15 -18 26 -53 42 -37 19 19 26 14 30 -24 3 -26 -1 -39 -13 -48 -10 -7 -23 -25 -29 -40 -7 -20 -15 -26 -29 -21 -27 8 -50 -4 -46 -26 5 -25 -7 -24 -24 3 -18 29 -30 8 -26 -47 3 -55 2 -54 27 -47 14 3 19 2 14 -6 -4 -7 -13 -12 -20 -12 -8 0 -19 -6 -25 -14 -10 -11 -7 -17 10 -29 12 -9 18 -20 14 -27 -5 -8 -16 3 -32 29 -26 45 -34 49 -53 26 -8 -9 -8 -15 -2 -15 6 0 12 6 15 13 2 6 7 9 11 6 3 -3 1 -20 -5 -38 -9 -24 -9 -35 0 -44 8 -8 11 -5 11 11 0 13 6 22 15 22 20 0 18 -10 -5 -38 -22 -26 -37 -22 -50 14 -11 27 -34 31 -56 9 -13 -13 -13 -15 -1 -15 9 0 16 -13 19 -35 4 -37 -6 -48 -15 -15 -3 11 -13 23 -24 26 -10 4 -26 14 -35 22 -16 14 -18 13 -18 -1 0 -10 -5 -17 -11 -17 -6 0 -8 7 -4 18 5 13 3 14 -5 6 -9 -9 -8 -17 2 -33 17 -27 45 -36 64 -20 8 6 18 9 22 5 4 -4 -2 -14 -13 -23 -19 -15 -19 -15 5 -8 23 7 24 7 10 -11 -24 -31 -31 -33 -52 -12 -12 12 -26 17 -39 13 -11 -4 -26 -2 -32 4 -7 6 -18 6 -26 1 -8 -4 -20 -6 -26 -4 -15 6 -25 -18 -20 -47 3 -13 -2 -27 -13 -35 -13 -10 -14 -13 -3 -14 8 0 12 -2 9 -5 -3 -3 -13 -3 -22 1 -13 5 -14 9 -5 20 7 8 9 17 5 21 -3 3 -6 1 -6 -5 0 -7 -11 -12 -25 -12 -31 0 -33 20 -2 21 18 1 19 2 3 6 -10 3 -23 0 -30 -7 -8 -8 -5 -16 13 -29 20 -15 22 -21 12 -39 -14 -26 -18 -26 -54 -9 -31 14 -36 32 -7 24 11 -3 18 -1 14 4 -16 26 -74 -20 -74 -59 0 -15 -6 -22 -18 -22 -10 0 -23 -5 -29 -11 -8 -8 -14 -5 -22 10 -7 12 -18 21 -26 21 -17 0 -20 16 -6 25 6 3 15 -4 21 -15 13 -23 30 -27 30 -5 0 8 -7 15 -15 15 -8 0 -15 5 -15 10 0 6 5 10 10 10 6 0 10 5 10 11 0 6 -14 1 -30 -11 -17 -12 -30 -27 -29 -33 7 -42 -56 -86 -94 -66 -12 7 -26 18 -30 26 -8 12 -12 12 -28 -3 -10 -9 -19 -25 -19 -36 0 -10 -7 -18 -15 -18 -18 0 -19 12 -2 29 7 7 -3 5 -25 -5 -23 -10 -34 -22 -31 -30 3 -9 -2 -14 -17 -14 -18 0 -21 4 -16 24 7 27 -25 63 -45 50 -8 -4 -10 -3 -5 4 8 14 -23 64 -35 56 -14 -8 -10 -24 6 -24 21 0 19 -17 -5 -30 -17 -9 -20 -8 -20 9 0 11 -4 23 -10 26 -5 3 -10 -1 -10 -9 0 -21 -9 -20 -36 5 -14 13 -24 17 -29 10 -3 -6 0 -11 8 -11 8 0 17 -9 20 -20 3 -12 14 -20 26 -20 12 0 21 -4 21 -10 0 -19 -48 -11 -55 10 -3 11 -13 20 -21 20 -14 0 -18 12 -15 38 2 11 -5 9 -28 -4 -34 -20 -55 -12 -25 11 10 8 14 15 8 15 -13 0 -35 -24 -33 -36 4 -25 -3 -44 -15 -44 -23 0 -29 19 -12 36 20 19 20 33 1 40 -8 4 -15 14 -15 24 0 18 -25 35 -47 31 -6 -1 -14 3 -18 9 -3 5 -16 10 -28 10 -18 0 -19 2 -7 10 9 6 10 10 3 10 -6 0 -14 -4 -18 -10 -7 -12 53 -43 71 -36 16 6 20 1 28 -46 6 -31 4 -38 -9 -38 -10 0 -16 7 -14 18 4 40 -1 49 -24 45 -13 -3 -32 4 -46 16 -12 11 -28 22 -34 25 -9 3 -9 7 -1 13 15 11 28 67 14 58 -5 -3 -10 -14 -10 -23 0 -12 -3 -13 -12 -4 -9 9 -9 15 0 24 13 13 16 32 4 24 -12 -7 -104 84 -101 101 2 15 -13 53 -22 53 -5 0 -9 6 -9 13 0 7 -14 29 -31 48 -17 19 -34 40 -38 47 -11 19 -41 4 -33 -16 5 -15 3 -15 -10 -4 -16 13 -22 55 -7 46 14 -8 19 14 6 24 -8 7 -18 5 -33 -7 -21 -17 -21 -39 2 -57 18 -14 6 -57 -13 -50 -8 3 -20 6 -27 6 -15 0 -39 47 -31 61 10 16 25 10 25 -10 0 -24 22 -42 39 -32 9 6 8 10 -7 13 -13 4 -21 16 -24 40 -3 31 0 37 26 48 20 9 25 15 16 18 -21 6 -67 57 -75 82 -3 11 -11 20 -16 20 -5 0 -9 7 -9 15 0 14 3 13 25 -1 14 -9 24 -22 23 -28 -5 -20 36 -56 63 -56 30 0 57 24 39 35 -5 3 -10 -1 -10 -9 0 -23 -17 -20 -46 7 -22 21 -23 26 -12 48 8 15 19 24 27 21 12 -4 12 -2 0 11 -13 14 -15 13 -24 -6 -14 -30 -45 -35 -45 -7 0 12 4 19 9 15 5 -3 12 -1 15 3 3 5 -5 14 -18 20 -21 9 -23 8 -18 -10 3 -15 1 -19 -9 -16 -28 9 -16 32 29 55 2 1 -4 12 -13 26 -9 14 -12 28 -7 31 5 3 15 -5 22 -18 14 -27 63 -55 54 -32 -3 7 2 21 11 30 9 9 12 16 6 16 -5 0 -15 -8 -20 -17 -10 -16 -11 -16 -17 5 -5 16 -9 20 -14 12 -6 -9 -13 -7 -28 8 -11 11 -18 23 -15 26 4 3 1 6 -5 6 -7 0 -12 7 -12 15 0 18 12 19 28 3 9 -9 12 -9 12 0 0 7 -4 12 -10 12 -5 0 -10 9 -10 19 0 11 -5 23 -10 26 -6 4 -8 10 -5 15 3 5 0 12 -6 15 -6 5 -9 22 -5 44 3 20 3 30 0 24 -8 -18 -24 -16 -24 2 0 8 -4 15 -10 15 -5 0 -10 -7 -10 -15 0 -9 -6 -18 -14 -21 -21 -8 -28 -62 -11 -88 8 -12 12 -26 8 -30 -4 -4 5 -6 21 -4 17 2 31 -2 33 -10 3 -7 -1 -10 -10 -6 -8 3 -18 0 -23 -7 -4 -7 -2 -15 4 -17 7 -2 12 -15 12 -29 0 -18 4 -24 15 -20 8 4 16 3 19 -1 6 -11 -12 -52 -23 -52 -6 0 -8 7 -4 16 4 10 0 20 -10 26 -10 5 -17 17 -17 27 0 10 -3 21 -7 25 -5 4 -8 13 -8 19 0 5 -6 12 -12 15 -19 6 -16 -11 12 -59 29 -51 31 -61 10 -53 -26 10 -16 -10 15 -31 35 -24 39 -38 8 -33 -16 2 -24 -4 -29 -22 -4 -14 -7 -19 -8 -11 -1 8 -4 11 -7 8 -4 -4 -1 -13 6 -22 9 -11 9 -15 1 -15 -8 0 -6 -8 4 -23 8 -13 16 -35 17 -49 1 -15 13 -33 30 -44 25 -17 42 -44 18 -29 -5 3 -10 -3 -10 -14 0 -12 5 -21 10 -21 6 0 10 -6 10 -14 0 -8 7 -17 16 -20 9 -3 12 -11 8 -18 -5 -10 -4 -10 6 -1 11 10 17 9 32 -4 14 -13 18 -13 18 -2 1 10 5 9 15 -5 7 -10 18 -15 24 -12 5 3 12 -8 16 -25 4 -17 13 -42 21 -57 8 -15 14 -35 14 -44 0 -11 5 -15 15 -12 8 4 15 13 15 21 0 8 4 11 10 8 5 -3 8 -16 6 -28 -5 -30 -44 -25 -72 11 -12 15 -25 24 -28 21 -9 -8 44 -59 60 -59 8 0 14 -7 14 -15 0 -8 3 -15 8 -15 4 0 16 -14 27 -30 19 -29 45 -40 45 -20 0 6 -6 10 -14 10 -21 0 -31 21 -15 31 20 13 29 11 29 -6 0 -8 5 -15 10 -15 13 0 13 17 0 25 -13 8 -13 25 1 25 6 0 13 -9 16 -20 3 -12 12 -19 22 -18 12 2 15 -4 14 -28 -2 -27 3 -33 40 -52 50 -26 21 -31 -36 -7 -20 8 -39 15 -41 15 -3 0 -3 -7 0 -15 4 -8 13 -15 21 -15 8 0 32 -14 53 -30 40 -31 50 -36 50 -21 0 5 -9 11 -20 14 -11 3 -20 10 -20 16 0 15 27 14 33 -1 3 -8 6 -6 6 5 1 9 6 17 11 17 6 0 11 -8 12 -17 0 -10 2 -22 3 -28 2 -5 3 -17 4 -25 1 -13 2 -13 11 0 8 13 11 13 27 -3 16 -16 16 -17 -7 -17 -20 0 -22 -2 -10 -10 9 -6 18 -6 24 0 15 15 26 12 26 -5 0 -8 22 -26 50 -39 27 -13 50 -21 50 -16 0 12 -28 32 -38 26 -10 -6 -52 21 -52 35 0 5 7 9 15 9 8 0 15 5 15 11 0 7 10 9 28 4 15 -4 35 -7 45 -7 9 0 17 -3 17 -9 0 -5 -21 -9 -47 -10 -48 -1 -48 -1 -14 -10 18 -6 35 -18 38 -28 3 -10 16 -24 29 -31 13 -8 24 -16 24 -19 0 -3 16 -7 36 -9 31 -2 35 0 24 13 -6 8 -19 14 -28 13 -33 -2 -52 2 -52 13 0 6 -10 19 -22 30 l-23 19 42 -6 c26 -4 48 -2 56 4 10 8 13 6 14 -9 1 -12 -5 -19 -15 -19 -9 0 -24 -5 -32 -10 -11 -8 -6 -10 22 -8 20 1 35 5 32 9 -2 5 5 13 16 19 23 13 27 30 5 30 -8 0 -15 5 -15 10 0 14 13 13 28 -2 7 -7 12 -8 12 -4 0 5 7 3 15 -4 19 -16 19 -34 0 -27 -8 4 -17 2 -20 -3 -4 -6 -2 -10 4 -10 5 0 17 -7 26 -16 21 -22 65 -11 65 16 0 11 5 20 10 20 6 0 10 -4 10 -10 0 -5 9 -10 20 -10 11 0 20 -4 20 -10 0 -5 -10 -10 -21 -10 -21 0 -21 -1 4 -20 42 -33 77 -22 42 14 -22 22 -19 26 16 19 26 -5 30 -3 27 12 -2 10 3 20 10 22 19 7 14 -25 -7 -44 -20 -17 -18 -43 4 -43 8 0 16 -4 19 -9 9 -14 -87 -10 -111 5 -18 11 -22 11 -26 0 -11 -29 109 -48 141 -23 9 7 16 7 20 1 6 -8 26 -11 35 -5 1 1 22 4 47 6 98 10 117 13 160 25 25 6 59 20 75 30 31 19 34 20 60 20 8 0 25 10 37 22 12 12 31 23 42 24 12 1 24 3 28 3 3 1 20 12 36 26 16 13 32 22 36 18 6 -7 46 35 46 49 0 4 10 8 23 8 15 0 29 9 37 25 7 13 21 27 31 30 10 4 28 19 39 36 12 16 27 29 35 29 12 0 49 46 50 62 0 4 17 24 37 46 39 41 78 104 78 126 0 7 6 19 14 25 37 31 77 153 55 167 -6 3 -8 12 -5 20 3 8 1 14 -4 14 -6 0 -10 7 -10 15 0 20 32 36 51 24 12 -7 11 -9 -3 -9 -12 0 -16 -9 -15 -35 1 -33 17 -52 17 -20 0 8 3 15 8 15 4 0 7 10 8 23 2 41 12 95 22 114 11 22 24 116 22 158 -1 17 -3 84 -5 150 -1 66 -6 140 -10 165 -4 25 -7 58 -7 73 1 15 -3 25 -8 22 -6 -4 -10 0 -10 7 0 8 -8 25 -17 38 -10 14 -16 34 -14 44 1 10 -2 28 -7 40 -26 53 -62 135 -62 140 0 12 -48 52 -58 48 -7 -2 -12 1 -12 7 0 6 5 11 10 11 11 0 -23 56 -75 125 -36 47 -113 125 -124 125 -5 0 -19 11 -32 23 -38 38 -79 62 -79 46 0 -12 -15 -4 -15 9 0 13 -39 52 -51 52 -6 0 -17 7 -24 15 -7 8 -20 15 -29 14 -12 0 -11 -4 7 -16 12 -8 22 -24 22 -34 0 -11 4 -19 10 -19 5 0 7 -7 4 -15 -4 -8 -13 -15 -21 -15 -11 0 -14 8 -11 30 3 21 0 31 -11 35 -9 3 -24 18 -33 35 -9 16 -24 31 -33 31 -27 2 -29 4 -62 27 -23 16 -39 21 -58 16 -17 -4 -32 -1 -43 9 -9 8 -26 13 -37 11 -11 -2 -30 4 -42 12 -25 16 -53 19 -53 5 0 -6 -12 -6 -32 0 -18 5 -34 9 -35 9 -1 0 0 -7 3 -15z m116 -43 c-2 -27 2 -34 25 -43 21 -8 24 -12 14 -22 -10 -9 -15 -8 -25 6 -18 24 -31 21 -44 -8 -7 -15 -17 -22 -25 -19 -12 4 -12 10 -4 28 6 13 17 22 23 19 7 -2 15 0 19 6 3 7 -2 11 -14 11 -12 0 -21 5 -21 10 0 6 9 10 20 10 11 0 20 5 20 11 0 6 -9 8 -20 4 -11 -3 -20 -2 -20 3 0 15 13 23 35 20 16 -2 19 -9 17 -36z m78 7 c0 -5 7 -9 15 -9 8 0 16 -8 16 -17 1 -16 2 -16 6 0 4 14 11 17 26 13 12 -3 26 -6 31 -6 4 0 6 -6 3 -14 -4 -11 7 -16 44 -21 27 -4 49 -11 49 -17 0 -5 -4 -6 -10 -3 -5 3 -10 0 -10 -9 0 -8 6 -16 13 -19 30 -11 -2 -14 -40 -4 -33 9 -47 8 -68 -3 -29 -15 -48 -4 -23 14 15 11 13 16 -20 47 -39 37 -72 55 -72 39 0 -6 6 -10 14 -10 19 0 39 -27 31 -40 -5 -8 -12 -5 -21 9 -8 11 -21 18 -29 15 -18 -7 -20 21 -3 40 13 14 48 10 48 -5z m30 -79 c0 -5 -4 -10 -9 -10 -5 0 -16 -3 -25 -6 -9 -3 -16 -1 -16 4 0 9 16 17 43 21 4 0 7 -3 7 -9z m-102 -21 c-2 -6 -8 -10 -13 -10 -5 0 -11 4 -13 10 -2 6 4 11 13 11 9 0 15 -5 13 -11z m38 -3 c18 -19 18 -46 -1 -46 -8 0 -15 -4 -15 -10 0 -5 -7 -10 -15 -10 -8 0 -15 7 -15 15 0 8 6 12 14 9 16 -6 30 22 16 31 -11 7 -14 25 -4 25 3 0 12 -6 20 -14z m166 -23 c-1 -4 7 -16 15 -26 9 -9 13 -20 9 -24 -4 -4 -15 3 -25 15 -11 15 -23 21 -34 16 -25 -9 -21 10 6 22 24 11 29 10 29 -3z m84 -5 c-2 -14 -11 -24 -24 -26 -28 -4 -29 14 -2 23 11 3 20 11 20 16 0 5 2 9 5 9 3 0 3 -10 1 -22z m88 -3 c18 -28 21 -65 5 -65 -8 0 -7 -5 1 -15 7 -9 10 -19 6 -22 -13 -14 -25 21 -20 58 4 27 1 38 -10 42 -9 4 -16 11 -16 17 0 18 17 11 34 -15z m-274 5 c0 -13 -28 -25 -38 -16 -3 4 0 11 8 16 20 13 30 12 30 0z m28 -11 c-7 -13 26 -39 43 -34 14 5 22 -1 31 -20 10 -22 9 -27 -8 -39 -23 -17 -44 -4 -44 28 0 15 -3 17 -9 8 -7 -11 -9 -11 -14 2 -3 8 -1 17 6 20 7 2 4 5 -5 5 -11 1 -18 9 -18 22 0 11 5 19 11 17 6 -2 9 -6 7 -9z m322 -39 c0 -5 -4 -10 -9 -10 -15 0 -22 -32 -10 -47 7 -7 9 -16 6 -20 -11 -10 -37 18 -34 37 5 33 47 68 47 40z m-157 -30 c-5 -20 -15 -25 -26 -14 -9 9 12 46 23 39 4 -3 6 -14 3 -25z m39 -2 c-6 -6 -16 -7 -23 -3 -9 6 -7 12 7 22 21 15 34 -1 16 -19z m-82 13 c0 -12 -20 -25 -27 -18 -7 7 6 27 18 27 5 0 9 -4 9 -9z m237 -18 c2 -6 -3 -13 -11 -15 -12 -2 -13 -7 -5 -18 8 -11 12 -12 16 -2 5 14 33 17 33 3 0 -5 -8 -12 -17 -16 -17 -6 -17 -7 1 -21 28 -20 35 -17 30 13 -4 22 -3 24 10 14 8 -7 14 -26 14 -42 -1 -29 -11 -38 -23 -19 -3 6 -13 10 -22 10 -26 0 -76 70 -67 94 7 19 35 18 41 -1z m-127 -23 c0 -5 -4 -10 -10 -10 -5 0 -10 5 -10 10 0 6 5 10 10 10 6 0 10 -4 10 -10z m40 -30 c0 -5 -4 -10 -10 -10 -5 0 -10 5 -10 10 0 6 5 10 10 10 6 0 10 -4 10 -10z m55 -21 c4 -6 5 -12 3 -14 -7 -7 -48 7 -48 16 0 13 37 11 45 -2z m165 -54 c17 -46 21 -65 13 -65 -9 0 -33 48 -33 68 0 7 -4 10 -10 7 -5 -3 -10 4 -10 16 0 19 2 20 16 8 9 -7 20 -22 24 -34z m-194 -13 c-4 -3 -12 0 -19 7 -9 9 -9 14 3 21 11 7 16 5 18 -6 2 -9 1 -18 -2 -22z m74 30 c0 -10 -36 -9 -46 1 -4 4 5 7 19 7 15 0 27 -4 27 -8z m80 -28 c7 -18 7 -31 -1 -40 -11 -14 -42 -8 -33 7 3 5 10 7 15 4 13 -8 11 9 -2 22 -6 6 -8 16 -5 22 11 16 16 14 26 -15z m-40 6 c0 -5 -7 -10 -15 -10 -8 0 -15 5 -15 10 0 6 7 10 15 10 8 0 15 -4 15 -10z m-140 -20 c0 -5 -4 -10 -10 -10 -5 0 -10 5 -10 10 0 6 5 10 10 10 6 0 10 -4 10 -10z m-22 -28 c2 -12 -1 -22 -7 -22 -6 0 -11 4 -11 9 0 5 -3 17 -7 27 -4 12 -2 15 8 12 8 -2 15 -14 17 -26z m295 -5 l26 -34 -37 -1 c-30 -1 -33 1 -19 9 13 8 15 14 7 29 -22 42 -10 40 23 -3z m-143 15 c0 -13 -12 -22 -22 -16 -10 6 -1 24 13 24 5 0 9 -4 9 -8z m90 -38 c0 -11 -6 -14 -21 -9 -18 6 -20 4 -14 -15 7 -21 6 -21 -14 -3 -24 20 -28 38 -6 30 8 -4 17 -2 20 3 10 16 35 11 35 -6z m-230 -30 c0 -8 -4 -14 -9 -14 -11 0 -22 26 -14 34 9 9 23 -3 23 -20z m278 -14 c3 -9 -1 -11 -12 -7 -9 4 -16 1 -16 -5 0 -9 -3 -9 -12 0 -10 10 -10 15 2 22 18 12 32 8 38 -10z m48 -36 c4 -27 11 -43 18 -41 6 3 10 10 9 16 -6 26 14 6 34 -34 22 -45 19 -63 -5 -25 -7 11 -21 20 -32 20 -12 0 -23 6 -25 13 -20 58 -28 71 -32 54 -3 -9 -8 -15 -13 -12 -5 3 -1 18 8 34 21 37 29 32 38 -25z m-110 10 c-3 -9 -6 -18 -6 -20 0 -2 -7 -4 -15 -4 -18 0 -19 6 -2 25 16 19 31 19 23 -1z m34 -30 c0 -8 -4 -12 -10 -9 -5 3 -10 10 -10 16 0 5 5 9 10 9 6 0 10 -7 10 -16z m43 -23 c5 -22 -1 -33 -14 -25 -12 7 -12 44 0 44 5 0 11 -9 14 -19z m-23 -49 c-12 -4 -40 23 -40 38 0 7 11 2 25 -11 13 -13 20 -25 15 -27z m-60 2 c0 -8 -4 -12 -10 -9 -5 3 -10 10 -10 16 0 5 5 9 10 9 6 0 10 -7 10 -16z m181 -63 c-1 -20 -9 -40 -17 -44 -20 -11 -18 -44 3 -56 10 -5 15 -12 11 -16 -9 -9 -48 36 -48 56 0 9 -10 24 -22 32 -20 14 -21 18 -8 26 8 6 11 11 6 11 -6 0 -5 5 2 12 7 7 12 19 12 28 0 13 -2 13 -10 0 -5 -8 -12 -11 -17 -7 -8 9 17 28 31 24 5 -2 11 -16 13 -31 2 -16 0 -25 -5 -22 -13 8 -25 -25 -13 -37 18 -18 46 1 46 33 0 16 -3 30 -7 30 -5 0 -8 10 -7 23 l0 22 17 -24 c10 -14 15 -38 13 -60z m-99 22 c2 -10 0 -33 -5 -52 -7 -27 -6 -37 6 -46 14 -10 14 -13 -4 -29 -13 -11 -19 -12 -18 -4 1 7 -1 21 -6 31 -4 10 -2 23 5 32 7 8 10 22 6 30 -3 8 0 15 7 15 7 0 4 5 -5 11 -22 12 -23 29 -4 29 8 0 16 -8 18 -17z m132 -22 c0 -11 5 -21 13 -21 7 0 13 -6 13 -14 0 -8 3 -21 6 -30 4 -11 1 -16 -11 -16 -12 0 -16 6 -12 20 3 12 0 20 -8 20 -7 0 -15 10 -19 23 -9 35 -7 49 7 44 6 -2 12 -14 11 -26z m-157 -37 c-9 -9 -28 6 -21 18 4 6 10 6 17 -1 6 -6 8 -13 4 -17z m-19 -12 c2 -7 -3 -12 -12 -12 -9 0 -16 7 -16 16 0 17 22 14 28 -4z m-47 -15 c-1 -12 -15 -9 -19 4 -3 6 1 10 8 8 6 -3 11 -8 11 -12z m109 3 c0 -5 -4 -10 -10 -10 -5 0 -10 5 -10 10 0 6 5 10 10 10 6 0 10 -4 10 -10z m103 -16 c-4 -10 -9 -12 -15 -6 -12 12 -1 35 12 27 5 -3 6 -13 3 -21z m-63 -24 c0 -5 -5 -10 -11 -10 -5 0 -7 -4 -4 -10 3 -5 1 -10 -4 -10 -6 0 -11 6 -12 13 0 10 -2 10 -6 0 -5 -15 -23 -18 -23 -5 0 8 36 30 53 31 4 1 7 -3 7 -9z m105 -14 c15 -11 17 -17 8 -28 -13 -16 4 -62 22 -60 14 2 26 -51 15 -62 -6 -6 -10 -21 -10 -35 l1 -26 14 25 14 25 1 -33 c0 -29 -2 -32 -25 -28 -14 3 -25 0 -25 -5 0 -18 30 -68 45 -77 25 -13 8 -39 -23 -36 -39 3 -39 3 -18 19 14 11 16 18 8 27 -16 20 -25 85 -13 92 19 12 13 81 -9 109 -11 14 -20 40 -20 59 -1 31 -1 32 -15 14 -8 -11 -18 -16 -22 -11 -5 4 -3 10 4 12 7 2 9 11 6 19 -7 18 17 18 42 0z m-45 -60 c0 -5 -7 -3 -15 4 -8 7 -15 20 -15 28 0 13 3 12 15 -4 8 -10 15 -23 15 -28z m-40 3 c0 -18 -18 -9 -23 12 -4 16 -3 18 9 8 8 -6 14 -15 14 -20z m120 6 c0 -8 -4 -15 -10 -15 -5 0 -10 7 -10 15 0 8 5 15 10 15 6 0 10 -7 10 -15z m-180 -4 c0 -14 -18 -23 -30 -16 -6 4 -8 11 -5 16 8 12 35 12 35 0z m67 -57 c-8 -9 -47 29 -47 46 0 10 8 6 26 -13 14 -16 24 -31 21 -33z m69 18 c7 -10 15 -36 18 -58 7 -37 5 -40 -23 -51 -19 -7 -33 -8 -37 -2 -3 5 8 14 25 20 41 14 31 38 -15 34 -23 -2 -34 1 -34 10 0 15 44 29 48 15 2 -6 8 -10 13 -10 6 0 5 8 -1 20 -6 11 -14 19 -18 19 -16 -3 -23 2 -17 11 10 16 29 12 41 -8z m-119 -62 c-1 -11 -6 -20 -13 -20 -7 0 -9 10 -6 25 5 29 21 24 19 -5z m63 -42 c0 -6 -10 -8 -22 -5 -14 4 -29 0 -41 -10 -20 -19 -57 -28 -57 -14 0 5 11 12 25 15 14 4 25 11 25 17 0 6 4 8 9 4 5 -3 12 -1 15 4 8 12 46 2 46 -11z m-150 -33 c0 -8 -4 -15 -10 -15 -5 0 -10 7 -10 15 0 8 5 15 10 15 6 0 10 -7 10 -15z m200 -20 c0 -8 -4 -15 -10 -15 -5 0 -10 7 -10 15 0 8 5 15 10 15 6 0 10 -7 10 -15z m80 0 c7 -9 11 -18 8 -20 -9 -10 -38 7 -38 21 0 18 14 18 30 -1z m-110 -21 c0 -9 -5 -14 -12 -12 -18 6 -21 28 -4 28 9 0 16 -7 16 -16z m46 -39 c-25 -26 -30 -62 -12 -81 10 -9 14 -19 11 -22 -3 -3 -15 5 -26 17 -16 17 -20 30 -15 57 4 20 13 34 21 34 8 0 15 8 15 17 0 13 3 14 11 6 9 -9 8 -16 -5 -28z m-69 -15 c-1 -11 -2 -20 -3 -20 0 0 -9 9 -19 20 -18 19 -17 20 3 20 15 0 20 -6 19 -20z m-87 -18 c0 -13 -12 -22 -22 -16 -10 6 -1 24 13 24 5 0 9 -4 9 -8z m179 -38 c3 -16 1 -17 -13 -5 -19 16 -21 34 -3 29 6 -3 14 -13 16 -24z m51 6 c0 -4 -7 -10 -15 -14 -8 -3 -15 -13 -15 -22 0 -10 5 -14 14 -11 11 4 14 -2 14 -24 -1 -16 -7 -29 -13 -29 -7 0 -20 -16 -29 -35 -10 -20 -21 -33 -27 -30 -5 4 1 24 15 48 21 35 23 42 10 52 -13 9 -13 15 1 47 10 26 20 36 30 32 8 -4 15 -10 15 -14z m-2175 -37 c-5 -15 -7 -34 -6 -40 3 -21 -17 -15 -24 7 -3 11 1 30 11 45 20 31 29 26 19 -12z m2035 29 c0 -4 -9 -8 -20 -9 -11 -1 -20 2 -20 8 0 5 9 9 20 9 11 0 20 -4 20 -8z m20 -32 c0 -5 -4 -10 -10 -10 -5 0 -10 5 -10 10 0 6 5 10 10 10 6 0 10 -4 10 -10z m-2024 -57 c-11 -11 -24 9 -18 29 l5 22 9 -24 c5 -12 6 -25 4 -27z m2051 17 c-3 -11 -1 -20 4 -20 5 0 9 -4 9 -10 0 -12 -10 -13 -27 -2 -14 9 -6 52 9 52 6 0 8 -9 5 -20z m43 -2 c0 -13 -23 -5 -28 10 -2 7 2 10 12 6 9 -3 16 -11 16 -16z m44 -43 c3 -8 1 -15 -4 -15 -6 0 -10 7 -10 15 0 8 2 15 4 15 2 0 6 -7 10 -15z m-84 -13 c0 -5 -7 -17 -15 -28 -14 -18 -14 -18 -15 9 0 17 5 27 15 27 8 0 15 -4 15 -8z m-56 -46 c-6 -25 -24 -37 -24 -15 0 15 21 52 26 46 3 -3 2 -16 -2 -31z m126 9 c-15 -18 -43 -20 -37 -2 2 6 9 12 15 12 5 0 14 3 18 8 13 13 17 -2 4 -18z m-2118 0 c0 -5 -5 -11 -11 -13 -6 -2 -11 4 -11 13 0 9 5 15 11 13 6 -2 11 -8 11 -13z m1923 5 c4 -6 11 -8 16 -5 5 4 9 0 9 -8 0 -13 -4 -13 -25 -4 -14 7 -25 15 -25 20 0 11 18 9 25 -3z m145 -21 c0 -7 10 -9 25 -7 17 4 25 1 25 -8 0 -8 -7 -14 -15 -14 -8 0 -16 -10 -16 -22 l-2 -23 -4 23 c-2 12 -13 27 -24 32 -23 13 -25 30 -4 30 8 0 15 -5 15 -11z m-48 -31 c-7 -7 -12 -8 -12 -2 0 14 12 26 19 19 2 -3 -1 -11 -7 -17z m-30 -60 c-17 -17 -27 -2 -12 17 9 11 9 15 1 15 -7 0 -9 5 -5 12 5 8 11 5 17 -10 7 -16 7 -26 -1 -34z m55 16 c-6 -7 -37 7 -37 16 0 15 35 16 38 2 2 -7 2 -16 -1 -18z m56 -20 c-6 -15 -48 -19 -57 -5 -8 13 1 18 34 19 21 0 27 -3 23 -14z m-253 -9 c0 -8 -4 -15 -10 -15 -5 0 -10 7 -10 15 0 8 5 15 10 15 6 0 10 -7 10 -15z m180 -20 c-8 -10 -7 -22 3 -47 15 -36 12 -51 -21 -89 -17 -20 -52 -26 -52 -9 0 6 6 10 14 10 17 0 56 46 56 66 0 24 -19 15 -26 -11 -3 -14 -10 -25 -15 -25 -13 0 -10 23 6 44 11 14 12 22 4 27 -8 4 -6 15 6 33 9 14 21 23 27 20 5 -3 5 -11 -2 -19z m-49 -18 c-13 -13 -26 -3 -16 12 3 6 11 8 17 5 6 -4 6 -10 -1 -17z m-1971 -49 c0 -5 -4 -8 -10 -8 -5 0 -10 5 -10 10 0 6 -4 10 -10 10 -5 0 -10 -9 -10 -19 0 -14 5 -18 20 -14 11 3 20 1 20 -5 0 -5 9 -12 20 -15 11 -3 20 -10 20 -16 0 -7 -10 -9 -25 -5 -22 5 -25 3 -25 -21 0 -15 -4 -24 -10 -20 -5 3 -10 17 -10 29 0 13 -7 29 -15 36 -16 13 -19 40 -8 79 l6 24 24 -29 c12 -16 23 -32 23 -36z m1874 37 c3 -9 0 -15 -9 -15 -16 0 -27 14 -18 24 10 10 21 7 27 -9z m77 -27 c0 -10 2 -10 6 0 2 6 9 12 14 12 6 0 5 -8 -1 -20 -6 -11 -16 -18 -22 -14 -5 4 -14 0 -19 -7 -4 -7 -11 -11 -14 -7 -7 7 16 48 27 48 5 0 8 -6 9 -12z m9 -60 c0 -5 -6 -8 -14 -5 -8 3 -17 -1 -20 -10 -4 -9 -9 -13 -13 -9 -9 8 28 47 38 40 5 -3 9 -10 9 -16z m63 -49 c-10 -20 -18 -27 -23 -20 -5 9 -10 8 -20 -4 -10 -12 -10 -15 4 -15 18 0 22 -15 6 -25 -5 -3 -10 -1 -10 4 0 6 -12 11 -27 11 l-28 1 23 17 c13 9 35 27 50 39 37 31 43 28 25 -8z m-1999 5 c4 -9 4 -19 2 -21 -8 -8 -26 8 -26 23 0 19 16 18 24 -2z m1876 -3 c0 -6 -4 -13 -10 -16 -5 -3 -10 1 -10 9 0 9 5 16 10 16 6 0 10 -4 10 -9z m40 -21 c0 -5 -9 -8 -20 -7 -20 1 -25 8 -14 20 8 7 34 -3 34 -13z m-115 -20 c-3 -5 -1 -10 6 -10 10 0 10 -3 1 -12 -10 -10 -15 -10 -22 2 -10 16 -4 30 11 30 6 0 7 -4 4 -10z m46 -13 c-13 -13 -26 -3 -16 12 3 6 11 8 17 5 6 -4 6 -10 -1 -17z m-111 -6 c0 -6 -4 -13 -10 -16 -5 -3 -10 1 -10 9 0 9 5 16 10 16 6 0 10 -4 10 -9z m155 -1 c-3 -5 -11 -10 -16 -10 -6 0 -7 5 -4 10 3 6 11 10 16 10 6 0 7 -4 4 -10z m-1755 -15 c0 -8 7 -15 15 -15 17 0 20 -16 4 -26 -14 -8 -53 31 -45 45 10 16 26 13 26 -4z m1716 -22 c-3 -8 -6 -17 -6 -19 0 -2 -3 -4 -7 -4 -5 0 -9 11 -9 24 -1 18 2 23 13 19 8 -3 12 -12 9 -20z m94 17 c0 -5 -4 -10 -10 -10 -5 0 -10 5 -10 10 0 6 5 10 10 10 6 0 10 -4 10 -10z m-186 -25 c-16 -14 -33 -25 -37 -25 -16 0 0 25 24 37 39 20 44 15 13 -12z m56 9 c0 -8 -4 -12 -10 -9 -5 3 -10 10 -10 16 0 5 5 9 10 9 6 0 10 -7 10 -16z m120 -13 c0 -10 -22 -31 -33 -31 -5 0 -4 6 2 14 9 10 8 15 -2 19 -10 4 -18 -10 -26 -49 -7 -30 -17 -54 -23 -54 -6 0 -7 8 -3 18 4 9 9 28 11 42 9 52 11 65 13 67 3 5 61 -20 61 -26z m-1835 1 c0 -18 -20 -15 -23 4 -3 10 1 15 10 12 7 -3 13 -10 13 -16z m50 -22 c9 15 25 12 25 -4 0 -8 5 -16 10 -18 6 -2 12 -15 14 -30 1 -15 9 -35 17 -44 13 -16 12 -17 -9 -12 -13 4 -28 0 -37 -9 -13 -13 -15 -12 -15 10 0 14 -7 27 -15 31 -8 3 -15 10 -15 16 0 5 7 10 15 10 8 0 15 -6 15 -14 0 -8 7 -16 15 -20 17 -6 19 3 5 38 -7 19 -16 25 -32 23 -15 -1 -23 4 -26 18 -4 16 -2 17 11 7 10 -9 17 -10 22 -2z m1635 -10 c0 -5 -4 -10 -10 -10 -5 0 -10 5 -10 10 0 6 5 10 10 10 6 0 10 -4 10 -10z m50 -10 c0 -5 -9 -10 -20 -10 -11 0 -20 5 -20 10 0 6 9 10 20 10 11 0 20 -4 20 -10z m70 -19 c-12 -23 -30 -36 -30 -22 0 10 27 41 36 41 3 0 0 -9 -6 -19z m-124 -9 c1 -7 0 -8 -3 -2 -2 5 -9 8 -14 4 -5 -3 -9 0 -9 6 0 15 23 7 26 -8z m-38 -10 c2 -7 -2 -10 -12 -6 -9 3 -16 11 -16 16 0 13 23 5 28 -10z m87 -5 c13 -26 5 -69 -13 -75 -10 -3 -12 5 -7 32 5 24 3 36 -4 36 -6 0 -11 7 -11 15 0 23 24 18 35 -8z m-40 -48 c0 -8 -12 -14 -28 -16 -18 -1 -27 2 -24 10 3 7 10 11 16 10 6 -2 11 2 11 8 0 6 6 9 13 7 6 -3 12 -11 12 -19z m75 11 c0 -5 -4 -10 -10 -10 -5 0 -10 5 -10 10 0 6 5 10 10 10 6 0 10 -4 10 -10z m-250 -10 c0 -5 -4 -10 -10 -10 -5 0 -10 5 -10 10 0 6 5 10 10 10 6 0 10 -4 10 -10z m-1381 -24 c7 -8 27 -22 46 -31 30 -13 48 -35 30 -35 -17 0 -105 56 -105 67 0 17 15 17 29 -1z m1301 -16 c0 -5 -7 -10 -16 -10 -8 0 -12 5 -9 10 3 6 10 10 16 10 5 0 9 -4 9 -10z m105 -10 c3 -11 11 -20 16 -20 5 0 9 -4 9 -10 0 -5 -4 -10 -9 -10 -15 0 -41 30 -41 46 0 21 18 17 25 -6z m98 1 c-4 -4 -21 -13 -36 -19 -23 -10 -28 -10 -25 0 6 16 49 39 61 31 5 -3 5 -8 0 -12z m77 0 c0 -10 -19 -26 -42 -34 -13 -5 -18 -1 -18 14 0 16 4 19 20 14 11 -4 20 -2 20 4 0 6 5 11 10 11 6 0 10 -4 10 -9z m-1586 -22 c-3 -5 -10 -7 -15 -4 -5 3 -6 0 -3 -8 6 -18 -12 -32 -21 -17 -8 13 24 52 36 44 5 -3 7 -10 3 -15z m1511 -36 c-3 -16 -11 -32 -17 -38 -8 -7 -9 -5 -5 7 3 10 2 20 -4 24 -6 4 -6 11 2 20 19 23 32 16 24 -13z m-135 2 c0 -8 -4 -15 -10 -15 -5 0 -10 7 -10 15 0 8 5 15 10 15 6 0 10 -7 10 -15z m-204 -22 c-10 -10 -19 5 -10 18 6 11 8 11 12 0 2 -7 1 -15 -2 -18z m60 10 c18 -23 17 -33 -1 -33 -9 0 -12 6 -8 16 4 12 2 15 -8 12 -8 -3 -13 -12 -11 -22 3 -19 -33 -23 -44 -3 -4 6 -4 9 1 5 9 -8 35 15 35 31 0 17 21 13 36 -6z m44 7 c0 -5 -4 -10 -10 -10 -5 0 -10 5 -10 10 0 6 5 10 10 10 6 0 10 -4 10 -10z m190 0 c0 -5 -4 -10 -10 -10 -5 0 -10 5 -10 10 0 6 5 10 10 10 6 0 10 -4 10 -10z m-30 -10 c0 -5 -9 -14 -20 -20 -22 -12 -27 -1 -8 18 14 14 28 16 28 2z m-139 -25 c-1 -15 -24 -12 -29 3 -3 9 2 13 12 10 10 -1 17 -7 17 -13z m76 -8 c9 -19 17 -23 42 -19 18 2 31 10 31 18 0 8 7 14 15 14 13 0 11 -6 -7 -30 -22 -31 -38 -39 -38 -19 0 5 -5 7 -11 4 -15 -10 -61 4 -54 15 3 6 -4 10 -16 10 -18 0 -19 2 -9 15 18 22 35 19 47 -8z m-123 -13 c9 -3 16 -14 16 -23 -1 -14 -2 -14 -14 2 -13 17 -15 17 -40 -10 -29 -31 -36 -19 -8 15 19 24 22 25 46 16z m-74 -19 c0 -8 -4 -15 -10 -15 -5 0 -10 7 -10 15 0 8 5 15 10 15 6 0 10 -7 10 -15z m150 5 c0 -5 -12 -10 -27 -10 -22 0 -25 2 -13 10 20 13 40 13 40 0z m-200 -35 c0 -8 -4 -15 -9 -15 -13 0 -22 16 -14 24 11 11 23 6 23 -9z m120 7 c0 -10 80 -28 103 -24 9 2 15 8 11 13 -3 5 2 12 11 15 26 10 28 -3 4 -27 -23 -23 -67 -28 -79 -9 -3 5 -12 5 -19 1 -18 -11 -5 -31 20 -31 12 0 17 -4 13 -11 -3 -6 -15 -9 -25 -6 -10 3 -17 0 -16 -7 1 -7 -10 -10 -29 -8 -24 2 -33 -2 -41 -21 -8 -18 -21 -26 -47 -29 -20 -2 -36 0 -36 4 0 4 -9 8 -19 8 -19 0 -38 17 -28 26 2 3 25 -1 50 -8 47 -12 77 -2 77 26 0 6 -7 2 -16 -9 -13 -17 -16 -18 -24 -5 -14 22 -12 33 5 26 13 -4 13 -2 5 14 -14 26 -13 40 5 40 8 0 12 -6 9 -14 -3 -8 0 -17 7 -22 7 -4 15 -2 17 4 2 7 8 12 13 12 4 0 6 -7 3 -15 -4 -10 0 -15 15 -15 21 0 21 1 6 36 -18 43 -18 44 -5 44 6 0 10 -3 10 -8z m98 -3 c-2 -6 -8 -10 -13 -10 -5 0 -11 4 -13 10 -2 6 4 11 13 11 9 0 15 -5 13 -11z m-340 -44 c0 -26 -12 -33 -23 -15 -8 13 1 40 13 40 5 0 10 -11 10 -25z m102 5 c0 -5 -7 -10 -15 -10 -8 0 -15 5 -15 10 0 6 7 10 15 10 8 0 15 -4 15 -10z m-755 -20 c-3 -5 -10 -10 -16 -10 -5 0 -9 5 -9 10 0 6 7 10 16 10 8 0 12 -4 9 -10z m705 -5 c0 -8 -7 -15 -15 -15 -8 0 -15 7 -15 15 0 8 7 15 15 15 8 0 15 -7 15 -15z m75 -15 c-5 -8 -11 -8 -17 -2 -6 6 -7 16 -3 22 5 8 11 8 17 2 6 -6 7 -16 3 -22z m-249 -4 c8 -8 14 -21 14 -30 0 -8 8 -17 18 -19 14 -4 14 -5 1 -6 -14 -1 -69 50 -69 64 0 10 22 5 36 -9z m109 -16 c-3 -5 -17 -10 -30 -10 -13 0 -27 5 -30 10 -4 6 8 10 30 10 22 0 34 -4 30 -10z m-270 -10 c3 -5 -1 -10 -9 -10 -9 0 -16 5 -16 10 0 6 4 10 9 10 6 0 13 -4 16 -10z m127 -5 c0 -5 -5 -11 -11 -13 -6 -2 -11 4 -11 13 0 9 5 15 11 13 6 -2 11 -8 11 -13z m168 5 c0 -5 -5 -10 -11 -10 -5 0 -7 5 -4 10 3 6 8 10 11 10 2 0 4 -4 4 -10z m79 -58 c-8 -2 -24 -8 -36 -14 -32 -16 -98 -16 -98 0 0 7 -6 17 -14 21 -7 5 -10 14 -7 20 11 18 24 13 28 -11 4 -31 47 -35 79 -9 l24 20 -34 1 c-32 0 -33 1 -16 14 17 12 23 11 53 -12 22 -17 29 -28 21 -30z m-284 28 c-3 -5 -10 -10 -16 -10 -5 0 -9 5 -9 10 0 6 7 10 16 10 8 0 12 -4 9 -10z m35 -19 c0 -6 -5 -13 -10 -16 -6 -4 -8 -10 -5 -15 8 -13 -6 -40 -21 -40 -8 0 -13 3 -13 8 4 21 -3 31 -16 26 -18 -7 -19 2 -3 20 7 7 20 11 30 8 10 -2 18 1 18 7 0 6 5 11 10 11 6 0 10 -4 10 -9z m60 -6 c0 -8 -7 -15 -16 -15 -11 0 -14 -6 -9 -20 5 -15 2 -20 -13 -20 -15 0 -19 5 -15 20 3 11 9 20 14 20 5 0 9 7 9 15 0 8 7 15 15 15 8 0 15 -7 15 -15z m110 5 c0 -5 -4 -10 -10 -10 -5 0 -10 5 -10 10 0 6 5 10 10 10 6 0 10 -4 10 -10z m-75 -20 c-3 -5 -1 -10 4 -10 6 0 11 -4 11 -10 0 -5 -13 -10 -30 -10 -33 0 -39 14 -12 29 22 13 35 14 27 1z"/> <path d="M1840 2581 c0 -17 33 -36 69 -38 26 -2 32 0 21 7 -8 5 -25 10 -38 10 -12 0 -25 7 -28 15 -7 16 -24 21 -24 6z"/> <path d="M1883 2433 c-13 -5 -7 -33 7 -33 11 0 21 28 12 33 -4 3 -12 2 -19 0z"/> <path d="M1452 2643 c-17 -17 -21 -27 -13 -36 5 -7 6 -19 2 -26 -7 -11 -11 -9 -20 7 -10 19 -17 21 -59 15 -26 -3 -50 -10 -53 -16 -11 -16 -61 2 -66 23 -3 11 -12 20 -20 20 -20 0 3 -41 28 -47 10 -3 19 -9 19 -13 0 -4 9 -10 20 -13 11 -3 20 -11 20 -17 0 -7 -8 -10 -20 -7 -11 3 -17 1 -14 -4 6 -11 42 -8 62 5 7 4 20 5 29 2 14 -6 14 -9 -2 -26 -18 -20 -18 -21 1 -34 10 -8 21 -12 24 -9 3 3 -1 8 -7 10 -18 6 -16 33 2 33 20 0 19 15 -1 35 -12 11 -25 14 -46 9 -23 -5 -29 -3 -26 7 8 21 76 16 94 -7 14 -18 15 -18 8 5 -4 16 -3 21 5 17 6 -4 11 -14 11 -22 0 -10 9 -5 25 13 22 26 23 29 8 41 -13 9 -14 15 -5 24 8 8 15 8 27 -2 19 -16 20 -49 0 -56 -8 -4 -15 -12 -15 -20 0 -8 -4 -14 -8 -14 -15 0 -56 -40 -48 -47 3 -4 12 2 20 12 13 18 15 18 30 2 23 -22 29 -21 16 2 -7 15 -7 22 3 28 21 12 72 97 55 90 -9 -3 -26 5 -39 17 l-24 22 -23 -23z m-42 -53 c0 -5 -4 -10 -10 -10 -5 0 -10 5 -10 10 0 6 5 10 10 10 6 0 10 -4 10 -10z"/> <path d="M1317 2643 c-12 -11 -8 -23 8 -23 8 0 15 7 15 15 0 16 -12 20 -23 8z"/> <path d="M1370 2634 c0 -14 3 -14 15 -4 8 7 15 14 15 16 0 2 -7 4 -15 4 -8 0 -15 -7 -15 -16z"/> <path d="M1270 2620 c0 -23 15 -27 23 -6 3 8 -1 17 -9 20 -9 4 -14 -1 -14 -14z"/> <path d="M1095 2600 c-10 -11 -24 -20 -32 -20 -7 0 -13 -4 -13 -10 0 -19 26 -10 49 16 26 30 23 44 -4 14z"/> <path d="M1143 2599 c6 -10 13 -15 15 -9 6 17 19 11 25 -11 7 -26 -21 -38 -38 -16 -15 21 -25 22 -25 2 0 -8 5 -15 10 -15 6 0 10 -7 10 -15 0 -23 18 -18 49 13 27 26 27 28 9 46 -10 11 -29 20 -43 22 -22 2 -23 1 -12 -17z"/> <path d="M1017 2583 c-10 -9 -9 -23 1 -23 5 0 9 7 9 15 0 17 -1 18 -10 8z"/> <path d="M1573 2566 c-16 -19 -4 -29 13 -11 8 7 14 16 14 19 0 10 -15 6 -27 -8z"/> <path d="M980 2551 c0 -11 -59 -35 -80 -32 -9 1 -11 -1 -5 -6 6 -4 11 -16 13 -26 3 -15 -2 -16 -24 -11 -19 5 -25 4 -20 -5 4 -6 20 -11 37 -11 19 0 29 -5 29 -15 0 -11 -8 -13 -30 -8 -25 5 -29 3 -24 -11 3 -9 12 -16 20 -16 19 0 18 -16 -1 -24 -10 -4 -20 3 -27 19 -12 26 -23 31 -32 16 -3 -5 1 -14 10 -22 8 -7 14 -22 13 -33 -2 -36 1 -47 12 -41 6 4 8 13 5 21 -3 8 -1 14 4 14 6 0 19 9 30 20 l21 21 32 -22 32 -23 -20 23 c-19 23 -19 23 0 37 15 11 16 17 7 26 -10 10 -14 8 -18 -8 -3 -11 -14 -21 -25 -21 -18 -2 -19 0 -7 15 7 9 19 21 26 25 22 14 13 29 -14 23 -22 -6 -25 -4 -22 16 2 15 11 24 24 26 24 3 65 42 46 42 -7 0 -12 -4 -12 -9z"/> <path d="M1223 2553 c-7 -2 -13 -11 -13 -19 0 -8 -7 -14 -16 -14 -10 0 -14 -6 -11 -15 9 -21 -14 -31 -25 -11 -5 9 -13 14 -19 11 -16 -10 -10 -22 13 -28 25 -7 51 10 41 26 -4 6 4 8 21 5 14 -3 26 -1 26 3 0 5 -4 9 -10 9 -5 0 -10 5 -10 11 0 7 9 9 21 6 12 -3 19 -1 16 6 -4 13 -18 17 -34 10z"/> <path d="M1011 2531 c-11 -11 -26 -21 -35 -23 -11 -2 -13 -7 -6 -17 7 -12 16 -8 46 22 21 20 33 37 26 37 -7 0 -21 -9 -31 -19z"/> <path d="M1066 2531 c-16 -11 -33 -27 -38 -35 -5 -9 -16 -16 -23 -16 -20 0 -19 -16 2 -24 17 -7 33 9 33 32 0 7 6 12 13 10 13 -3 57 31 57 44 0 13 -13 9 -44 -11z"/> <path d="M1107 2503 c-2 -5 -1 -19 4 -33 7 -23 7 -23 8 8 1 31 -3 40 -12 25z"/> <path d="M1271 2494 c0 -11 3 -14 6 -6 3 7 2 16 -1 19 -3 4 -6 -2 -5 -13z"/> <path d="M1326 2473 c-6 -14 -5 -15 5 -6 7 7 10 15 7 18 -3 3 -9 -2 -12 -12z"/> <path d="M1061 2464 c0 -11 3 -14 6 -6 3 7 2 16 -1 19 -3 4 -6 -2 -5 -13z"/> <path d="M1241 2467 c-8 -10 -7 -14 4 -14 8 0 15 6 15 14 0 7 -2 13 -4 13 -2 0 -9 -6 -15 -13z"/> <path d="M830 2450 c0 -5 7 -7 15 -4 8 4 15 8 15 10 0 2 -7 4 -15 4 -8 0 -15 -4 -15 -10z"/> <path d="M1145 2449 c-4 -6 -5 -12 -2 -15 2 -3 7 2 10 11 7 17 1 20 -8 4z"/> <path d="M1400 2440 c0 -5 5 -10 10 -10 6 0 10 5 10 10 0 6 -4 10 -10 10 -5 0 -10 -4 -10 -10z"/> <path d="M788 2423 c6 -2 12 -14 12 -26 0 -14 3 -18 10 -11 15 15 2 44 -19 43 -10 0 -11 -2 -3 -6z"/> <path d="M1000 2414 c0 -6 7 -19 15 -30 8 -10 14 -14 14 -9 0 6 -6 19 -14 29 -8 11 -15 15 -15 10z"/> <path d="M1245 2410 c-3 -5 -1 -10 4 -10 6 0 11 5 11 10 0 6 -2 10 -4 10 -3 0 -8 -4 -11 -10z"/> <path d="M733 2369 c-21 -23 -49 -53 -62 -65 -23 -24 -23 -24 -3 -24 21 0 47 32 35 43 -3 4 6 12 21 18 14 7 26 18 26 26 0 16 16 17 25 2 4 -6 -2 -17 -14 -25 -12 -8 -21 -21 -22 -27 0 -7 -16 -25 -34 -40 -27 -22 -38 -26 -53 -18 -16 8 -22 5 -33 -17 -8 -15 -21 -32 -29 -39 -12 -9 -9 -10 14 -6 22 4 27 2 24 -8 -3 -8 -11 -14 -19 -14 -20 -1 -39 -14 -39 -28 0 -8 3 -8 12 1 15 15 38 16 38 2 0 -18 -51 -32 -66 -19 -10 8 -14 8 -14 0 0 -6 -6 -11 -14 -11 -8 0 -17 -12 -20 -26 -10 -37 -4 -38 19 -3 11 16 23 29 28 29 13 0 7 -30 -7 -36 -8 -3 -17 -12 -20 -20 -3 -9 -1 -12 4 -9 6 3 10 1 10 -4 0 -6 5 -11 10 -11 6 0 10 11 10 25 0 29 15 33 24 8 5 -11 1 -22 -10 -30 -9 -7 -14 -19 -11 -27 3 -8 -1 -22 -8 -33 -13 -17 -14 -16 -15 15 0 29 -5 34 -26 31 -4 0 -10 5 -14 11 -10 16 -34 -25 -26 -43 2 -7 5 -4 5 6 1 9 6 17 12 17 14 0 39 -25 39 -39 0 -14 -17 -14 -22 -1 -4 13 -68 -20 -68 -36 0 -17 27 -7 34 12 8 20 26 8 26 -17 0 -11 -4 -17 -10 -14 -12 8 -70 -35 -70 -52 0 -7 -4 -13 -10 -13 -5 0 -10 -4 -10 -10 0 -20 20 -9 26 15 3 13 9 24 13 23 3 -1 16 4 29 11 21 11 23 11 14 -6 -6 -10 -29 -35 -51 -56 -23 -21 -41 -44 -41 -50 0 -6 6 -2 14 9 8 10 18 16 21 12 4 -4 -4 -21 -19 -38 -14 -17 -26 -39 -25 -48 0 -13 3 -11 11 6 6 12 18 22 26 22 8 0 12 6 9 15 -4 8 -2 17 3 20 6 4 10 14 10 23 0 10 14 24 33 32 17 7 35 15 40 18 4 2 7 -2 7 -8 0 -15 -29 -44 -37 -37 -9 10 -44 -40 -38 -55 4 -9 -5 -20 -20 -28 -14 -7 -23 -15 -20 -18 2 -2 -3 -19 -12 -36 -9 -17 -18 -35 -19 -41 -2 -5 -6 -21 -9 -35 l-6 -25 15 25 c8 14 15 33 16 43 0 18 17 22 39 8 17 -11 4 -34 -15 -27 -19 7 -18 -18 1 -34 8 -7 15 -19 15 -26 0 -19 -30 -5 -31 15 0 13 -2 13 -6 1 -4 -8 -12 -21 -20 -28 -17 -18 -17 -37 2 -52 20 -17 43 -6 51 25 6 25 24 35 24 13 0 -6 3 -8 7 -5 3 4 12 2 18 -3 9 -7 16 -6 25 5 16 19 30 19 30 1 0 -20 27 -28 34 -10 4 9 11 12 18 8 10 -6 11 -5 1 8 -7 8 -10 18 -6 21 3 4 1 7 -5 7 -7 0 -12 -10 -12 -21 0 -18 -2 -19 -15 -9 -9 7 -13 15 -11 18 3 2 -8 15 -25 29 -16 14 -29 31 -29 38 0 8 -8 18 -17 24 -10 5 -15 13 -11 17 5 4 19 -5 32 -19 23 -24 46 -22 31 3 -3 6 1 10 9 10 9 0 16 5 16 10 0 12 -22 9 -31 -4 -11 -14 -46 12 -53 40 -4 14 -5 29 -2 31 9 9 26 -8 26 -28 0 -10 7 -19 15 -19 8 0 15 5 15 10 0 6 -4 10 -10 10 -5 0 -10 5 -10 11 0 5 5 7 12 3 7 -4 8 -3 4 4 -4 6 2 20 14 32 16 16 17 20 4 20 -20 0 -10 38 17 62 14 12 16 18 7 21 -10 4 -10 7 0 15 7 5 14 19 15 30 1 17 6 21 22 17 18 -5 18 -5 2 5 -9 6 -15 15 -12 21 4 5 1 9 -5 9 -6 0 -8 5 -5 10 5 8 12 7 22 -2 12 -10 17 -9 25 5 5 10 14 15 20 11 7 -4 7 0 -1 13 -7 14 -7 23 1 31 9 9 9 12 0 12 -7 0 -12 -4 -12 -10 0 -5 -7 -10 -15 -10 -8 0 -15 4 -15 9 0 15 29 33 41 26 7 -5 10 -1 7 11 -2 13 -11 18 -25 16 -26 -4 -35 9 -22 28 7 12 11 13 18 2 4 -8 11 -12 14 -10 9 4 57 -33 57 -44 0 -6 -7 -8 -15 -4 -16 6 -21 -9 -5 -19 5 -3 17 2 27 12 17 17 17 19 -9 43 -21 19 -26 31 -21 53 6 32 18 35 34 6 7 -13 7 -19 1 -15 -6 3 -13 2 -17 -4 -11 -17 14 -11 44 11 27 20 28 22 13 40 -9 10 -23 19 -32 19 -12 -1 -12 -3 3 -11 30 -17 18 -30 -13 -14 -19 10 -30 11 -30 5 0 -6 -5 -8 -12 -4 -8 5 -6 11 6 20 12 8 13 13 5 16 -7 2 -9 10 -5 17 6 9 12 9 26 -4 12 -11 20 -13 25 -5 4 6 15 8 26 5 14 -5 19 -2 19 11 0 15 3 15 23 -4 22 -21 37 -20 37 0 0 5 -5 6 -10 3 -11 -7 -40 18 -40 34 0 6 7 11 15 11 8 0 15 -4 15 -10 0 -5 7 -6 17 -3 10 4 14 2 10 -4 -4 -6 0 -13 8 -16 12 -5 12 -2 3 18 -6 14 -17 25 -25 25 -7 0 -13 4 -13 9 0 5 -10 7 -22 4 -23 -6 -23 -6 2 21 20 22 26 24 28 12 2 -9 12 -16 23 -16 21 0 26 16 7 23 -10 4 -9 8 2 16 8 5 11 13 7 18 -5 4 -12 1 -16 -6 -7 -11 -13 -9 -29 7 -11 11 -18 23 -14 26 3 3 2 6 -1 6 -4 0 -24 -19 -44 -41z m17 -98 c0 -10 -8 -21 -17 -25 -10 -3 -24 -9 -31 -12 -11 -5 -12 -2 -3 15 7 11 18 21 26 21 8 0 15 5 15 10 0 6 2 10 5 10 3 0 5 -8 5 -19z m-110 -48 c0 -20 -3 -24 -11 -16 -7 7 -9 19 -6 27 10 24 17 19 17 -11z m10 -81 c0 -13 -12 -22 -22 -16 -10 6 -1 24 13 24 5 0 9 -4 9 -8z m-40 -147 c0 -8 -7 -15 -15 -15 -8 0 -15 7 -15 15 0 8 7 15 15 15 8 0 15 -7 15 -15z m-50 -44 c0 -4 -4 -11 -9 -16 -5 -6 -11 -21 -13 -35 -2 -14 -10 -25 -18 -25 -8 0 -18 -4 -22 -10 -4 -5 -10 -6 -14 -2 -4 3 3 14 14 24 12 10 23 32 26 48 2 17 5 31 5 32 2 5 31 -10 31 -16z m-64 -197 c-13 -12 -20 -14 -29 -5 -8 8 -6 15 9 25 25 19 42 3 20 -20z m-46 -51 c0 -5 -4 -15 -10 -23 -11 -18 -25 -7 -17 15 6 15 27 21 27 8z m15 -103 c-5 -8 -11 -8 -17 -2 -6 6 -7 16 -3 22 5 8 11 8 17 2 6 -6 7 -16 3 -22z m43 -38 c-5 -25 -25 -25 -30 1 -4 20 -1 23 14 19 10 -2 18 -12 16 -20z m-40 -1 c3 -8 -1 -12 -9 -9 -7 2 -15 10 -17 17 -3 8 1 12 9 9 7 -2 15 -10 17 -17z m-82 -48 c-11 -11 -19 6 -11 24 8 17 8 17 12 0 3 -10 2 -21 -1 -24z m34 18 c0 -6 -4 -13 -10 -16 -5 -3 -10 1 -10 9 0 9 5 16 10 16 6 0 10 -4 10 -9z"/> <path d="M1121 2394 c0 -11 3 -14 6 -6 3 7 2 16 -1 19 -3 4 -6 -2 -5 -13z"/> <path d="M1060 2385 c0 -9 6 -12 15 -9 8 4 12 10 9 15 -8 14 -24 10 -24 -6z"/> <path d="M1265 2380 c-8 -13 -1 -24 14 -19 6 3 7 10 2 18 -6 10 -10 10 -16 1z"/> <path d="M1830 2370 c0 -5 5 -10 10 -10 6 0 10 5 10 10 0 6 -4 10 -10 10 -5 0 -10 -4 -10 -10z"/> <path d="M915 2348 c5 -26 15 -36 15 -15 0 8 6 17 12 19 7 3 3 7 -9 10 -17 5 -21 2 -18 -14z"/> <path d="M1053 2353 c15 -2 39 -2 55 0 15 2 2 4 -28 4 -30 0 -43 -2 -27 -4z"/> <path d="M1943 2354 c16 -5 25 -34 9 -34 -13 0 -34 -59 -25 -72 14 -23 48 -17 48 8 0 21 -1 21 -18 7 -9 -9 -19 -14 -22 -11 -9 9 6 38 20 38 7 0 12 13 11 32 -1 25 -6 33 -21 35 -16 1 -16 1 -2 -3z"/> <path d="M957 2321 c-4 -17 -3 -21 5 -13 5 5 8 16 6 23 -3 8 -7 3 -11 -10z"/> <path d="M915 2280 c-3 -5 -1 -10 4 -10 6 0 11 5 11 10 0 6 -2 10 -4 10 -3 0 -8 -4 -11 -10z"/> <path d="M1484 2257 c-12 -6 -40 -24 -62 -39 -23 -16 -46 -28 -51 -28 -20 0 -87 -97 -105 -152 -15 -47 28 -66 45 -21 24 65 42 94 55 89 8 -3 11 0 7 10 -3 8 1 14 11 14 9 0 16 4 16 9 0 16 53 19 76 4 19 -12 27 -12 46 -2 52 28 61 67 23 104 -28 28 -32 29 -61 12z m51 -27 c15 -17 16 -24 7 -45 -13 -28 -52 -34 -72 -10 -11 13 -16 13 -48 -1 -63 -26 -94 -65 -127 -159 -5 -14 -9 -16 -12 -7 -18 47 82 173 148 187 16 4 29 10 29 15 0 13 30 40 44 40 7 0 21 -9 31 -20z"/> <path d="M2125 2220 c-9 -15 4 -30 23 -29 15 1 15 2 0 6 -10 2 -18 9 -18 15 0 5 7 8 15 4 8 -3 15 -1 15 4 0 13 -27 13 -35 0z"/> <path d="M800 2190 c-12 -8 -11 -10 8 -10 12 0 22 -5 22 -12 0 -6 2 -9 5 -6 7 6 -5 38 -14 38 -3 0 -13 -5 -21 -10z"/> <path d="M1623 2190 c-32 -13 -29 -25 16 -77 28 -31 44 -61 52 -99 12 -53 12 -54 -14 -75 -20 -15 -27 -30 -27 -53 0 -62 67 -89 106 -43 16 18 18 29 11 52 -5 17 -10 53 -12 81 -4 64 -47 158 -86 186 -15 12 -26 25 -23 30 6 9 6 9 -23 -2z m44 -54 c44 -50 63 -101 63 -169 0 -25 5 -49 10 -52 15 -9 12 -51 -5 -65 -20 -17 -61 -5 -68 21 -4 14 4 30 24 51 33 36 35 45 13 117 -10 34 -29 66 -55 92 -21 21 -39 41 -39 44 0 15 23 0 57 -39z"/> <path d="M760 2180 c0 -5 5 -10 10 -10 6 0 10 5 10 10 0 6 -4 10 -10 10 -5 0 -10 -4 -10 -10z"/> <path d="M800 2154 c0 -11 29 -34 34 -26 2 4 -4 13 -15 20 -10 7 -19 10 -19 6z"/> <path d="M745 2140 c-3 -5 -1 -10 4 -10 6 0 11 5 11 10 0 6 -2 10 -4 10 -3 0 -8 -4 -11 -10z"/> <path d="M2196 2111 c-9 -15 23 -36 36 -23 5 5 7 15 4 21 -9 13 -33 14 -40 2z m34 -11 c0 -5 -4 -10 -9 -10 -6 0 -13 5 -16 10 -3 6 1 10 9 10 9 0 16 -4 16 -10z"/> <path d="M2190 2049 c12 -8 12 -12 2 -16 -9 -3 -4 -10 14 -19 18 -9 31 -11 37 -5 14 14 0 44 -18 37 -8 -3 -17 -1 -20 4 -4 6 -12 10 -18 10 -7 0 -6 -4 3 -11z m50 -24 c0 -8 -4 -15 -10 -15 -5 0 -10 7 -10 15 0 8 5 15 10 15 6 0 10 -7 10 -15z"/> <path d="M660 1986 c0 -2 8 -10 18 -17 15 -13 16 -12 3 4 -13 16 -21 21 -21 13z"/> <path d="M1272 1938 c-45 -22 -37 -101 12 -114 13 -3 27 -12 30 -19 8 -22 91 -74 138 -86 57 -16 131 -4 165 25 23 20 25 26 14 40 -10 12 -18 13 -32 5 -34 -18 -138 -23 -167 -8 -39 19 -62 40 -56 51 3 4 0 7 -8 6 -8 -2 -12 5 -10 21 6 39 -6 67 -33 79 -14 7 -27 12 -28 11 -1 0 -12 -5 -25 -11z m58 -23 c8 -9 10 -28 6 -48 -5 -28 -2 -37 21 -60 58 -54 165 -74 227 -42 16 9 31 13 34 10 10 -10 -13 -24 -60 -36 -73 -20 -147 1 -206 57 -25 24 -51 44 -57 44 -34 0 -48 62 -17 79 24 14 38 13 52 -4z"/> <path d="M580 1880 c-13 -8 -13 -11 -1 -22 9 -8 12 -9 7 -1 -3 6 2 16 11 22 10 6 14 10 8 11 -5 0 -17 -5 -25 -10z"/> <path d="M545 1824 c-9 -9 -13 -19 -10 -22 3 -3 14 4 25 16 24 25 10 30 -15 6z"/> <path d="M636 1765 c-3 -9 -6 -22 -5 -28 0 -7 5 -1 10 12 5 13 8 26 5 28 -2 2 -6 -3 -10 -12z"/> <path d="M360 1695 c0 -8 4 -15 10 -15 5 0 7 7 4 15 -4 8 -8 15 -10 15 -2 0 -4 -7 -4 -15z"/> <path d="M1863 1502 c-224 -2 -243 -4 -252 -21 -11 -21 -25 -71 -48 -178 -17 -77 -35 -101 -26 -34 11 81 -41 173 -115 203 -44 18 -51 19 -212 24 -206 7 -217 4 -230 -49 -5 -23 -15 -57 -21 -75 -6 -18 -12 -45 -14 -60 -2 -15 -9 -49 -15 -77 -32 -155 -33 -168 -17 -180 9 -7 15 -20 13 -31 -3 -10 -16 -75 -30 -144 -26 -121 -26 -125 -8 -140 10 -9 17 -21 14 -28 -5 -17 15 -15 22 3 3 8 10 15 17 15 6 0 9 -7 5 -15 -3 -9 0 -15 10 -15 10 0 14 6 10 15 -4 11 2 15 27 15 18 0 38 -5 45 -12 9 -9 12 -9 12 0 0 7 14 12 34 12 18 0 39 7 46 15 7 8 22 57 34 108 20 84 24 92 46 95 133 13 267 77 259 124 -1 7 10 38 24 68 15 30 27 61 27 68 0 6 5 12 11 12 6 0 9 -9 6 -22 -3 -13 -9 -48 -12 -79 -6 -49 -4 -58 11 -67 16 -9 17 -15 5 -63 -44 -188 -51 -233 -39 -246 16 -15 203 -24 236 -12 24 9 37 34 46 90 3 19 10 49 15 67 5 18 10 35 10 37 -1 16 14 71 21 80 5 6 52 10 107 9 54 -1 106 3 116 8 21 11 22 41 1 59 -10 8 -14 21 -9 38 15 65 17 111 3 116 -7 3 -57 6 -111 8 -53 2 -98 8 -100 13 -1 5 53 10 120 12 144 3 141 0 168 126 25 116 36 112 -262 108z m-469 -43 c91 -31 136 -112 115 -210 -13 -61 -49 -138 -75 -159 -15 -14 -15 -15 7 -20 21 -5 19 -8 -27 -36 -61 -38 -101 -51 -181 -60 -70 -7 -64 3 -93 -134 -6 -30 -14 -63 -17 -72 -4 -16 -18 -18 -119 -18 -63 0 -114 2 -114 5 0 8 60 279 66 298 4 12 0 17 -15 17 -12 0 -21 6 -21 13 0 14 78 365 85 386 4 11 37 13 178 8 101 -3 188 -10 211 -18z m726 17 c0 -3 -9 -45 -21 -95 l-21 -91 -128 0 c-71 0 -131 -3 -133 -7 -2 -5 -7 -20 -11 -35 l-6 -28 120 0 c134 0 128 5 105 -80 -19 -71 -19 -70 10 -70 27 0 28 -1 20 -22 -4 -10 -32 -12 -124 -10 l-120 4 -10 -39 c-5 -21 -20 -86 -32 -145 l-24 -108 -118 0 c-108 0 -118 2 -113 18 6 21 66 292 66 298 0 3 -9 4 -20 2 -10 -2 -20 -1 -22 2 -1 3 18 96 42 208 l45 202 247 0 c137 0 248 -2 248 -4z"/> <path d="M1190 1272 c0 -10 -6 -41 -14 -70 -12 -48 -12 -52 4 -52 9 0 32 10 51 23 60 40 49 117 -18 117 -15 0 -23 -6 -23 -18z m60 -29 c0 -23 -20 -53 -35 -53 -17 0 -19 18 -5 54 10 27 40 27 40 -1z"/> <path d="M500 1461 c0 -25 6 -27 13 -6 4 8 2 17 -3 20 -6 4 -10 -3 -10 -14z"/> <path d="M370 1455 c0 -8 -5 -15 -11 -15 -12 0 -2 -42 13 -51 5 -3 4 -17 -3 -33 -10 -22 -10 -29 0 -35 7 -5 12 -17 10 -27 -3 -28 11 -53 27 -47 8 3 14 13 13 22 0 10 -2 11 -6 4 -10 -26 -24 -12 -18 17 4 19 3 30 -4 30 -6 0 -11 9 -11 20 0 11 5 20 10 20 6 0 10 9 10 20 0 11 -7 20 -16 20 -11 0 -14 6 -8 23 3 12 11 24 15 25 11 4 1 22 -12 22 -5 0 -9 -7 -9 -15z"/> <path d="M2391 1414 c0 -11 3 -14 6 -6 3 7 2 16 -1 19 -3 4 -6 -2 -5 -13z"/> <path d="M2416 1403 c-6 -14 -5 -15 5 -6 7 7 10 15 7 18 -3 3 -9 -2 -12 -12z"/> <path d="M521 1405 c0 -12 23 -45 33 -45 3 0 6 7 6 15 0 8 -6 15 -14 15 -8 0 -17 6 -19 13 -3 6 -6 8 -6 2z"/> <path d="M2299 1363 c-13 -16 -12 -17 4 -4 9 7 17 15 17 17 0 8 -8 3 -21 -13z"/> <path d="M2420 1369 c0 -5 5 -7 10 -4 6 3 10 8 10 11 0 2 -4 4 -10 4 -5 0 -10 -5 -10 -11z"/> <path d="M2362 1237 c-15 -18 10 -51 26 -35 16 16 15 48 -2 48 -7 0 -18 -6 -24 -13z m28 -12 c0 -8 -4 -15 -10 -15 -5 0 -10 7 -10 15 0 8 5 15 10 15 6 0 10 -7 10 -15z"/> <path d="M388 1205 c5 -31 20 -42 28 -21 3 9 -1 22 -9 31 -21 21 -25 19 -19 -10z"/> <path d="M585 1120 c3 -5 10 -10 16 -10 5 0 9 5 9 10 0 6 -7 10 -16 10 -8 0 -12 -4 -9 -10z"/> <path d="M2303 1067 c1 -7 -9 -12 -22 -12 -30 0 -51 -29 -33 -47 10 -10 17 -10 32 0 14 9 26 9 39 3 12 -7 22 -6 29 1 19 19 14 36 -18 51 -20 10 -29 11 -27 4z m33 -30 c8 3 14 0 14 -6 0 -13 -20 -14 -39 -2 -8 6 -10 14 -5 22 7 11 9 11 12 -3 2 -10 9 -15 18 -11z m-56 -5 c0 -13 -12 -22 -22 -16 -10 6 -1 24 13 24 5 0 9 -4 9 -8z"/> <path d="M726 985 c18 -14 16 -17 -13 -19 -7 -1 -13 -5 -13 -9 0 -4 0 -13 0 -19 0 -7 14 -21 30 -30 17 -9 30 -13 30 -8 0 5 -9 12 -20 15 -11 3 -20 13 -20 21 0 19 9 18 34 -3 16 -14 18 -14 8 -2 -6 9 -9 19 -5 22 8 8 -26 47 -40 47 -6 0 -2 -7 9 -15z"/> <path d="M2152 928 c-27 -27 -6 -57 27 -36 15 9 17 16 10 30 -11 21 -20 23 -37 6z m19 -31 c-16 -16 -26 0 -10 19 9 11 15 12 17 4 2 -6 -1 -17 -7 -23z"/> <path d="M540 853 c0 -3 10 -14 21 -24 13 -11 19 -25 15 -34 -3 -9 -2 -13 4 -10 6 3 13 -1 16 -9 3 -9 12 -16 20 -16 21 0 17 17 -5 23 -14 3 -18 11 -14 25 3 15 -3 24 -26 35 -17 9 -31 13 -31 10z"/> <path d="M810 810 c0 -5 5 -10 10 -10 6 0 10 5 10 10 0 6 -4 10 -10 10 -5 0 -10 -4 -10 -10z"/> <path d="M785 791 c-3 -6 -2 -11 4 -11 5 0 11 -10 13 -22 2 -18 5 -19 14 -7 9 11 7 18 -6 32 -12 12 -20 15 -25 8z"/> <path d="M865 720 c-3 -5 -1 -10 4 -10 6 0 11 5 11 10 0 6 -2 10 -4 10 -3 0 -8 -4 -11 -10z"/> <path d="M1211 617 c-11 -18 -11 -20 0 -9 18 17 42 15 35 -3 -3 -8 -1 -15 4 -15 17 0 11 29 -8 39 -14 7 -21 5 -31 -12z"/> <path d="M1760 625 c0 -9 6 -12 15 -9 8 4 15 7 15 9 0 2 -7 5 -15 9 -9 3 -15 0 -15 -9z"/> <path d="M805 620 c3 -5 11 -10 16 -10 6 0 7 5 4 10 -3 6 -11 10 -16 10 -6 0 -7 -4 -4 -10z"/> <path d="M783 595 c0 -7 8 -10 19 -7 10 2 18 6 18 7 0 1 -8 5 -18 7 -11 3 -19 0 -19 -7z"/> <path d="M1783 603 c-15 -5 -17 -23 -4 -23 5 0 11 7 15 15 3 8 4 15 3 14 -1 0 -8 -3 -14 -6z"/> <path d="M1106 582 c-4 -7 -1 -12 8 -12 8 0 16 -10 18 -22 2 -15 6 -19 10 -12 5 7 0 22 -10 35 -13 15 -21 19 -26 11z"/> <path d="M1030 556 c0 -9 5 -16 10 -16 6 0 10 4 10 9 0 6 -4 13 -10 16 -5 3 -10 -1 -10 -9z"/> <path d="M1680 561 c0 -10 19 -25 25 -20 1 2 -3 10 -11 17 -8 7 -14 8 -14 3z"/> <path d="M1541 544 c0 -11 3 -14 6 -6 3 7 2 16 -1 19 -3 4 -6 -2 -5 -13z"/> <path d="M1505 540 c-3 -5 -1 -10 4 -10 6 0 11 5 11 10 0 6 -2 10 -4 10 -3 0 -8 -4 -11 -10z"/> <path d="M1485 509 c-4 -6 -5 -12 -2 -15 2 -3 7 2 10 11 7 17 1 20 -8 4z"/> <path d="M1531 507 c-28 -14 -43 -44 -18 -34 9 3 19 2 22 -3 4 -6 12 -10 18 -10 7 0 6 4 -3 10 -9 6 -11 13 -5 18 9 6 19 32 13 32 -2 0 -14 -6 -27 -13z"/> <path d="M1360 495 c0 -8 7 -15 16 -15 9 0 14 -6 12 -12 -6 -17 -44 -16 -40 0 1 7 -5 12 -13 12 -13 0 -13 -4 -3 -22 7 -13 14 -25 15 -26 4 -9 93 39 92 50 0 10 -2 10 -6 1 -7 -19 -31 -15 -45 7 -15 24 -28 26 -28 5z"/> <path d="M1262 376 c1 -10 8 -17 13 -17 15 1 12 24 -3 29 -9 3 -13 -2 -10 -12z"/> <path d="M1345 350 c-3 -5 -18 -10 -33 -10 -21 0 -24 -2 -12 -10 20 -13 53 -13 45 0 -3 6 1 10 9 10 8 0 18 5 21 10 3 6 -1 10 -9 10 -8 0 -18 -4 -21 -10z"/> </g> </svg> 